<svg width="50" height="50" viewBox="0 0 50 50" fill="none" xmlns="http://www.w3.org/2000/svg">
<path d="M22.6391 38.16L15.3818 30.9376L17.8474 28.4725L22.6391 33.1944L31.9443 23.8891L34.4099 26.3891L22.6391 38.16ZM9.7224 45.8334C8.7849 45.8334 7.9717 45.4891 7.28281 44.8006C6.59427 44.1117 6.25 43.2985 6.25 42.361V11.111C6.25 10.1735 6.59427 9.3605 7.28281 8.67196C7.9717 7.98342 8.7849 7.63914 9.7224 7.63914H12.6734V4.16675H16.3193V7.63914H33.6807V4.16675H37.3266V7.63914H40.2776C41.2151 7.63914 42.0283 7.98342 42.7172 8.67196C43.4057 9.3605 43.75 10.1735 43.75 11.111V42.361C43.75 43.2985 43.4057 44.1117 42.7172 44.8006C42.0283 45.4891 41.2151 45.8334 40.2776 45.8334H9.7224ZM9.7224 42.361H40.2776V20.486H9.7224V42.361ZM9.7224 17.0141H40.2776V11.111H9.7224V17.0141Z" fill="white"/>
</svg>
