<svg width="50" height="50" viewBox="0 0 50 50" fill="none" xmlns="http://www.w3.org/2000/svg">
<path d="M28.4723 27.7775C26.7362 27.7775 25.2605 27.1699 24.0452 25.9546C22.83 24.7393 22.2223 23.2636 22.2223 21.5275C22.2223 19.7914 22.83 18.3157 24.0452 17.1004C25.2605 15.8852 26.7362 15.2775 28.4723 15.2775C30.2084 15.2775 31.6841 15.8852 32.8994 17.1004C34.1147 18.3157 34.7223 19.7914 34.7223 21.5275C34.7223 23.2636 34.1147 24.7393 32.8994 25.9546C31.6841 27.1699 30.2084 27.7775 28.4723 27.7775ZM12.4999 34.7223C11.5451 34.7223 10.7277 34.3822 10.0478 33.702C9.36763 33.0221 9.02752 32.2048 9.02752 31.2499V11.8056C9.02752 10.8508 9.36763 10.0333 10.0478 9.35304C10.7277 8.67318 11.5451 8.33325 12.4999 8.33325H44.4442C45.3991 8.33325 46.2166 8.67318 46.8968 9.35304C47.5767 10.0333 47.9166 10.8508 47.9166 11.8056V31.2499C47.9166 32.2048 47.5767 33.0221 46.8968 33.702C46.2166 34.3822 45.3991 34.7223 44.4442 34.7223H12.4999ZM17.3609 31.2499H39.5833C39.5833 29.8958 40.055 28.747 40.9984 27.8036C41.9414 26.8605 43.09 26.389 44.4442 26.389V16.6666C43.09 16.6666 41.9414 16.1949 40.9984 15.2515C40.055 14.3084 39.5833 13.1598 39.5833 11.8056H17.3609C17.3609 13.1598 16.8893 14.3084 15.9463 15.2515C15.0029 16.1949 13.8541 16.6666 12.4999 16.6666V26.389C13.8541 26.389 15.0029 26.8605 15.9463 27.8036C16.8893 28.747 17.3609 29.8958 17.3609 31.2499ZM41.6666 41.6666H5.55565C4.60079 41.6666 3.78325 41.3267 3.10304 40.6468C2.42318 39.9666 2.08325 39.1491 2.08325 38.1942V14.5833H5.55565V38.1942H41.6666V41.6666Z" fill="white"/>
</svg>
