<svg width="50" height="50" viewBox="0 0 50 50" fill="none" xmlns="http://www.w3.org/2000/svg">
<path d="M6.25 43.7501V14.6527H18.9932V10.0694L25 4.16675L31.0068 10.0694V23.1944H43.75V43.7501H6.25ZM9.7224 40.2777H14.7917V35.2084H9.7224V40.2777ZM9.7224 31.736H14.7917V26.6667H9.7224V31.736ZM9.7224 23.1944H14.7917V18.1251H9.7224V23.1944ZM22.4651 40.2777H27.5349V35.2084H22.4651V40.2777ZM22.4651 31.736H27.5349V26.6667H22.4651V31.736ZM22.4651 23.1944H27.5349V18.1251H22.4651V23.1944ZM22.4651 14.6527H27.5349V9.58342H22.4651V14.6527ZM35.2083 40.2777H40.2776V35.2084H35.2083V40.2777ZM35.2083 31.736H40.2776V26.6667H35.2083V31.736Z" fill="white"/>
</svg>
