<svg width="50" height="50" viewBox="0 0 50 50" fill="none" xmlns="http://www.w3.org/2000/svg">
<path d="M37.3609 43.7499H14.3057V16.9442L28.8192 2.08325L31.0416 4.02752C31.2614 4.2244 31.4321 4.49645 31.5536 4.84367C31.6751 5.19089 31.7359 5.57857 31.7359 6.00669V6.59731L29.4098 16.9442H44.2708C45.1968 16.9442 46.0071 17.2914 46.7015 17.9859C47.3959 18.6803 47.7432 19.4905 47.7432 20.4166V24.6473C47.7432 24.8938 47.7489 25.1503 47.7604 25.4166C47.7718 25.6829 47.7314 25.9376 47.639 26.1807L41.1807 41.1458C40.8709 41.869 40.3548 42.484 39.6322 42.9905C38.9097 43.4968 38.1525 43.7499 37.3609 43.7499ZM17.7775 40.2775H37.8124L44.2708 25.0348V20.4166H25.0692L27.8473 7.95148L17.7775 18.4025V40.2775ZM14.3057 16.9442V20.4166H7.60411V40.2775H14.3057V43.7499H4.13171V16.9442H14.3057Z" fill="white"/>
</svg>
