<svg width="27" height="26" viewBox="0 0 27 26" fill="none" xmlns="http://www.w3.org/2000/svg">
<path d="M13.3943 6.90625C13.3943 10.2717 10.6407 13 7.24403 13H1.09375V6.90625C1.09375 3.54076 3.84732 0.8125 7.24403 0.8125C10.6407 0.8125 13.3943 3.54076 13.3943 6.90625Z" fill="#1F8787"/>
<path d="M13.3936 19.0938C13.3936 15.7283 16.1471 13 19.5438 13H25.6941V19.0938C25.6941 22.4592 22.9405 25.1875 19.5438 25.1875C16.1471 25.1875 13.3936 22.4592 13.3936 19.0938Z" fill="#1F8787"/>
<path d="M1.09375 19.0938C1.09375 22.4592 3.84732 25.1875 7.24403 25.1875H13.3943V19.0938C13.3943 15.7283 10.6407 13 7.24403 13C3.84732 13 1.09375 15.7283 1.09375 19.0938Z" fill="#FFAF4C"/>
<path d="M25.6941 6.90625C25.6941 3.54076 22.9405 0.8125 19.5438 0.8125H13.3936V6.90625C13.3936 10.2717 16.1471 13 19.5438 13C22.9405 13 25.6941 10.2717 25.6941 6.90625Z" fill="#FFAF4C"/>
</svg>
