<svg width="40" height="40" viewBox="0 0 40 40" fill="none" xmlns="http://www.w3.org/2000/svg">
<path d="M6.11117 33.3334C5.36117 33.3334 4.71061 33.058 4.1595 32.5072C3.60867 31.9561 3.33325 31.3055 3.33325 30.5555V9.44466C3.33325 8.69466 3.60867 8.04411 4.1595 7.493C4.71061 6.94217 5.36117 6.66675 6.11117 6.66675H33.8887C34.6387 6.66675 35.2892 6.94217 35.8403 7.493C36.3912 8.04411 36.6666 8.69466 36.6666 9.44466V30.5555C36.6666 31.3055 36.3912 31.9561 35.8403 32.5072C35.2892 33.058 34.6387 33.3334 33.8887 33.3334H6.11117ZM19.9999 21.0555L6.11117 12.0834V30.5555H33.8887V12.0834L19.9999 21.0555ZM19.9999 18.278L33.7778 9.44466H6.24992L19.9999 18.278ZM6.11117 12.0834V9.44466V30.5555V12.0834Z" fill="white"/>
</svg>
