<svg width="40" height="40" viewBox="0 0 40 40" fill="none" xmlns="http://www.w3.org/2000/svg">
<path d="M9.99992 23.3612H23.1387V20.5833H9.99992V23.3612ZM9.99992 18.0833H29.9999V15.3053H9.99992V18.0833ZM9.99992 12.8053H29.9999V10.0278H9.99992V12.8053ZM3.33325 36.6666V6.11117C3.33325 5.36117 3.60867 4.71061 4.1595 4.1595C4.71061 3.60867 5.36117 3.33325 6.11117 3.33325H33.8887C34.6387 3.33325 35.2892 3.60867 35.8403 4.1595C36.3912 4.71061 36.6666 5.36117 36.6666 6.11117V27.222C36.6666 27.972 36.3912 28.6226 35.8403 29.1737C35.2892 29.7245 34.6387 29.9999 33.8887 29.9999H9.99992L3.33325 36.6666ZM8.80534 27.222H33.8887V6.11117H6.11117V30.0695L8.80534 27.222Z" fill="white"/>
</svg>
