<svg width="230" height="38" viewBox="0 0 230 38" fill="none" xmlns="http://www.w3.org/2000/svg">
<path d="M60.768 30.128C56.7787 30.128 53.824 28.9973 51.904 26.736C51.2213 25.9253 50.6667 24.848 50.24 23.504C49.8133 22.16 49.6 20.528 49.6 18.608C49.6 16.688 49.9093 14.9707 50.528 13.456C51.168 11.92 52.032 10.736 53.12 9.904C55.232 8.34667 57.7813 7.568 60.768 7.568C61.728 7.568 62.6667 7.64267 63.584 7.792C64.5013 7.92 65.184 8.05867 65.632 8.208L66.304 8.432L66.208 8.752C64.544 8.176 62.7307 7.888 60.768 7.888C58.5067 7.888 56.6187 8.624 55.104 10.096C53.952 11.184 53.1413 12.784 52.672 14.896C52.3947 16.0907 52.256 17.552 52.256 19.28C52.256 21.008 52.5013 22.608 52.992 24.08C53.4827 25.5307 54.0373 26.608 54.656 27.312C55.296 28.016 56.064 28.5813 56.96 29.008C57.856 29.4133 58.5707 29.648 59.104 29.712C59.6373 29.776 60.2667 29.808 60.992 29.808C61.7387 29.808 62.7307 29.7227 63.968 29.552V22.96H60.096V22.64H68V22.96H66.624V29.264C65.0027 29.84 63.0507 30.128 60.768 30.128ZM77.6453 30.128C75.4053 30.128 73.5813 29.488 72.1733 28.208C70.7653 26.928 70.0613 24.9547 70.0613 22.288C70.0613 19.6213 70.7866 17.552 72.2373 16.08C73.7093 14.608 75.5653 13.872 77.8053 13.872C80.0666 13.872 81.9013 14.512 83.3093 15.792C84.7173 17.072 85.4213 19.0453 85.4213 21.712C85.4213 24.3787 84.6853 26.448 83.2133 27.92C81.7626 29.392 79.9066 30.128 77.6453 30.128ZM77.8693 14.128C76.2479 14.128 74.9039 14.8533 73.8373 16.304C72.7706 17.7333 72.2373 19.7387 72.2373 22.32C72.2373 24.88 72.7279 26.7787 73.7093 28.016C74.6906 29.2533 75.9919 29.872 77.6133 29.872C79.2346 29.872 80.5786 29.1573 81.6453 27.728C82.7119 26.2773 83.2453 24.272 83.2453 21.712C83.2453 19.1307 82.7546 17.2213 81.7733 15.984C80.7919 14.7467 79.4906 14.128 77.8693 14.128ZM92.0315 30C90.1542 30 88.9702 29.5093 88.4795 28.528C88.3728 28.3147 88.3195 28.1227 88.3195 27.952V6.032H90.5595V27.728C90.5595 28.3467 90.6768 28.8267 90.9115 29.168C91.1675 29.488 91.4235 29.6587 91.6795 29.68L92.0315 29.744H93.0235V30H92.0315ZM94.8113 22.576C94.8113 19.8027 95.4833 17.6587 96.8273 16.144C98.1713 14.6293 100.187 13.872 102.875 13.872C104.134 13.872 105.403 14.192 106.683 14.832V6.032H108.923V27.728C108.923 28.3467 109.041 28.8267 109.275 29.168C109.531 29.488 109.787 29.6587 110.043 29.68L110.395 29.744H111.387V30H109.435C108.561 30 107.889 29.808 107.419 29.424C106.971 29.04 106.737 28.656 106.715 28.272L106.683 27.728V27.216C106.278 27.9627 105.606 28.624 104.667 29.2C103.729 29.776 102.619 30.064 101.339 30.064C96.9873 29.9573 94.8113 27.4613 94.8113 22.576ZM101.371 29.808C102.801 29.808 104.027 29.424 105.051 28.656C106.075 27.888 106.619 27.1307 106.683 26.384V15.12C105.169 14.4587 103.867 14.128 102.779 14.128C100.881 14.128 99.4513 14.8747 98.4913 16.368C97.5313 17.84 97.0513 19.9093 97.0513 22.576C97.0513 27.3973 98.4913 29.808 101.371 29.808ZM114.519 22.192C114.519 24.8373 114.977 26.7787 115.895 28.016C116.833 29.2533 118.06 29.872 119.575 29.872C121.708 29.872 123.607 29.552 125.271 28.912L125.367 29.136C123.66 29.7973 121.729 30.128 119.575 30.128C117.441 30.128 115.703 29.488 114.359 28.208C113.015 26.928 112.343 24.9547 112.343 22.288C112.343 19.6213 113.047 17.552 114.455 16.08C115.863 14.608 117.655 13.872 119.831 13.872C121.58 13.872 123.052 14.3947 124.247 15.44C125.441 16.4853 126.039 18.032 126.039 20.08C126.039 20.1867 126.039 20.2933 126.039 20.4H114.615C114.551 20.976 114.519 21.5733 114.519 22.192ZM123.863 20.144C123.841 18.096 123.447 16.5813 122.679 15.6C121.911 14.6187 120.919 14.128 119.703 14.128C118.487 14.128 117.399 14.6613 116.439 15.728C115.5 16.7947 114.903 18.2667 114.647 20.144H123.863ZM140.623 30C139.748 30 139.076 29.808 138.607 29.424C138.159 29.04 137.924 28.656 137.903 28.272L137.871 27.728V17.68C137.871 15.9947 137.433 14.9173 136.559 14.448C136.111 14.2347 135.556 14.128 134.895 14.128C133.529 14.128 132.303 14.672 131.215 15.76C130.127 16.8267 129.583 17.7867 129.583 18.64V30H127.343V14H129.583V17.648C129.945 16.7307 130.617 15.8773 131.599 15.088C132.58 14.2773 133.657 13.872 134.831 13.872C136.004 13.872 136.953 13.9893 137.679 14.224C138.425 14.4373 138.969 14.7467 139.311 15.152C139.844 15.8133 140.111 16.6667 140.111 17.712V27.728C140.111 28.3467 140.228 28.8267 140.463 29.168C140.719 29.488 140.975 29.6587 141.231 29.68L141.583 29.744H142.575V30H140.623Z" fill="#FF8C00"/>
<path d="M167.445 7.6V7.92H157.365V18.16H166.709V18.48H157.365V30H154.709V7.6H167.445ZM172.482 30C171.607 30 170.935 29.808 170.466 29.424C170.018 29.04 169.783 28.656 169.762 28.272L169.73 27.728V14H171.97V27.728C171.97 28.3467 172.087 28.8267 172.322 29.168C172.578 29.488 172.823 29.6587 173.058 29.68L173.442 29.744H174.434V30H172.482ZM169.922 10.416C169.666 10.16 169.538 9.84 169.538 9.456C169.538 9.072 169.666 8.752 169.922 8.496C170.178 8.21866 170.498 8.08 170.882 8.08C171.266 8.08 171.586 8.21866 171.842 8.496C172.119 8.752 172.258 9.072 172.258 9.456C172.258 9.84 172.119 10.16 171.842 10.416C171.586 10.672 171.266 10.8 170.882 10.8C170.498 10.8 170.178 10.672 169.922 10.416ZM177.581 22.192C177.581 24.8373 178.04 26.7787 178.957 28.016C179.896 29.2533 181.122 29.872 182.637 29.872C184.77 29.872 186.669 29.552 188.333 28.912L188.429 29.136C186.722 29.7973 184.792 30.128 182.637 30.128C180.504 30.128 178.765 29.488 177.421 28.208C176.077 26.928 175.405 24.9547 175.405 22.288C175.405 19.6213 176.109 17.552 177.517 16.08C178.925 14.608 180.717 13.872 182.893 13.872C184.642 13.872 186.114 14.3947 187.309 15.44C188.504 16.4853 189.101 18.032 189.101 20.08C189.101 20.1867 189.101 20.2933 189.101 20.4H177.677C177.613 20.976 177.581 21.5733 177.581 22.192ZM186.925 20.144C186.904 18.096 186.509 16.5813 185.741 15.6C184.973 14.6187 183.981 14.128 182.765 14.128C181.549 14.128 180.461 14.6613 179.501 15.728C178.562 16.7947 177.965 18.2667 177.709 20.144H186.925ZM195.438 30C193.56 30 192.376 29.5093 191.886 28.528C191.779 28.3147 191.726 28.1227 191.726 27.952V6.032H193.966V27.728C193.966 28.3467 194.083 28.8267 194.318 29.168C194.574 29.488 194.83 29.6587 195.086 29.68L195.438 29.744H196.43V30H195.438ZM198.218 22.576C198.218 19.8027 198.89 17.6587 200.234 16.144C201.578 14.6293 203.594 13.872 206.282 13.872C207.54 13.872 208.81 14.192 210.09 14.832V6.032H212.33V27.728C212.33 28.3467 212.447 28.8267 212.682 29.168C212.938 29.488 213.194 29.6587 213.45 29.68L213.802 29.744H214.794V30H212.842C211.967 30 211.295 29.808 210.826 29.424C210.378 29.04 210.143 28.656 210.122 28.272L210.09 27.728V27.216C209.684 27.9627 209.012 28.624 208.074 29.2C207.135 29.776 206.026 30.064 204.746 30.064C200.394 29.9573 198.218 27.4613 198.218 22.576ZM204.778 29.808C206.207 29.808 207.434 29.424 208.458 28.656C209.482 27.888 210.026 27.1307 210.09 26.384V15.12C208.575 14.4587 207.274 14.128 206.186 14.128C204.287 14.128 202.858 14.8747 201.898 16.368C200.938 17.84 200.458 19.9093 200.458 22.576C200.458 27.3973 201.898 29.808 204.778 29.808ZM226.374 15.12C226.033 14.8427 225.478 14.608 224.71 14.416C223.963 14.224 223.398 14.128 223.014 14.128C222.63 14.128 222.406 14.128 222.342 14.128C221.19 14.1493 220.358 14.448 219.846 15.024C219.334 15.5787 219.078 16.208 219.078 16.912C219.078 17.616 219.302 18.2133 219.75 18.704C220.198 19.1733 220.753 19.5467 221.414 19.824C222.097 20.08 222.822 20.3787 223.59 20.72C224.379 21.0613 225.105 21.4133 225.766 21.776C226.449 22.1173 227.014 22.6293 227.462 23.312C227.91 23.9733 228.134 24.8053 228.134 25.808C228.134 26.8107 227.782 27.664 227.078 28.368C226.374 29.072 225.585 29.5413 224.71 29.776C223.857 30.0107 222.929 30.128 221.926 30.128C219.75 30.128 218.118 29.648 217.03 28.688L217.222 28.496C217.649 28.9013 218.278 29.232 219.11 29.488C219.963 29.744 220.785 29.872 221.574 29.872C222.833 29.872 223.867 29.5307 224.678 28.848C225.51 28.144 225.926 27.28 225.926 26.256C225.926 25.2107 225.617 24.3787 224.998 23.76C224.379 23.12 223.622 22.6293 222.726 22.288C221.851 21.9253 220.966 21.5733 220.07 21.232C219.174 20.8693 218.417 20.3787 217.798 19.76C217.179 19.12 216.87 18.384 216.87 17.552C216.87 16.72 217.062 16.048 217.446 15.536C217.83 15.0027 218.342 14.6293 218.982 14.416C220.07 14.0533 221.158 13.872 222.246 13.872C224.081 13.872 225.51 14.2133 226.534 14.896L226.374 15.12Z" fill="black"/>
<path d="M0 19C0 8.50659 8.50659 0 19 0V19H0Z" fill="#FFAF4D"/>
<path d="M38 1.90735e-06C38 10.4934 29.4934 19 19 19L19 2.46316e-07L38 1.90735e-06Z" fill="#FFAF4D"/>
<path d="M0 38C0 27.5066 8.50659 19 19 19V38H0Z" fill="#1F8787"/>
<path d="M38 19C38 29.4934 29.4934 38 19 38L19 19L38 19Z" fill="#1F8787"/>
</svg>
